+ filenameToUse=/home/horvathandras/vatic/vatic/public/videouploads/DJI_0045_30m_szarvasragas_homokmegy_20180603_napos_napraforgo_T3.avi
+ filenameNoDot=DJI_0045_30m_szarvasragas_homokmegy_20180603_napos_napraforgo_T3
+ FullUploadPath=/home/horvathandras/vatic/vatic/public/videouploads/DJI_0045_30m_szarvasragas_homokmegy_20180603_napos_napraforgo_T3.avi
+ VideoDataDir=/home/horvathandras/vatic/vatic/videos
+ AvailableObjectTypes='PozitívROI NegatívROI Túrás ~Friss ~1-2Hetes ~Régebbi ~Egyéb1 ~Egyéb2 ~Egyéb3 Rágás ~Friss ~1-2Hetes ~Régebbi ~Egyéb1 ~Egyéb2 ~Egyéb3 Törés ~Friss ~1-2Hetes ~Régebbi ~Egyéb1 ~Egyéb2 ~Egyéb3 Taposás ~Friss ~1-2Hetes ~Régebbi ~Egyéb1 ~Egyéb2 ~Egyéb3 EgészségesNövény Egyéb1 Egyéb2 Egyéb3 Egyéb4 Egyéb5 Bizonytalan Művelőút Gktaposás Vetőhiba Széldöntés Jégkár Belvíz Aszály Erózió EgyszikűGyom KétszikűGyom EgyébNövvédelmiPR'
++ dirname /home/horvathandras/vatic/vatic/vatic_publisher.sh
+ cd /home/horvathandras/vatic/vatic
+ touch /home/horvathandras/vatic/vatic/public/videouploads/DJI_0045_30m_szarvasragas_homokmegy_20180603_napos_napraforgo_T3.avi
+ chmod 744 /home/horvathandras/vatic/vatic/public/videouploads/DJI_0045_30m_szarvasragas_homokmegy_20180603_napos_napraforgo_T3.avi
+ mkdir /home/horvathandras/vatic/vatic/videos/DJI_0045_30m_szarvasragas_homokmegy_20180603_napos_napraforgo_T3
mkdir: cannot create directory '/home/horvathandras/vatic/vatic/videos/DJI_0045_30m_szarvasragas_homokmegy_20180603_napos_napraforgo_T3': File exists
+ turkic extract /home/horvathandras/vatic/vatic/public/videouploads/DJI_0045_30m_szarvasragas_homokmegy_20180603_napos_napraforgo_T3.avi /home/horvathandras/vatic/vatic/videos/DJI_0045_30m_szarvasragas_homokmegy_20180603_napos_napraforgo_T3 --no-resize
ffmpeg version 2.8.14-0ubuntu0.16.04.1 Copyright (c) 2000-2018 the FFmpeg developers
  built with gcc 5.4.0 (Ubuntu 5.4.0-6ubuntu1~16.04.9) 20160609
  configuration: --prefix=/usr --extra-version=0ubuntu0.16.04.1 --build-suffix=-ffmpeg --toolchain=hardened --libdir=/usr/lib/x86_64-linux-gnu --incdir=/usr/include/x86_64-linux-gnu --cc=cc --cxx=g++ --enable-gpl --enable-shared --disable-stripping --disable-decoder=libopenjpeg --disable-decoder=libschroedinger --enable-avresample --enable-avisynth --enable-gnutls --enable-ladspa --enable-libass --enable-libbluray --enable-libbs2b --enable-libcaca --enable-libcdio --enable-libflite --enable-libfontconfig --enable-libfreetype --enable-libfribidi --enable-libgme --enable-libgsm --enable-libmodplug --enable-libmp3lame --enable-libopenjpeg --enable-libopus --enable-libpulse --enable-librtmp --enable-libschroedinger --enable-libshine --enable-libsnappy --enable-libsoxr --enable-libspeex --enable-libssh --enable-libtheora --enable-libtwolame --enable-libvorbis --enable-libvpx --enable-libwavpack --enable-libwebp --enable-libx265 --enable-libxvid --enable-libzvbi --enable-openal --enable-opengl --enable-x11grab --enable-libdc1394 --enable-libiec61883 --enable-libzmq --enable-frei0r --enable-libx264 --enable-libopencv
  libavutil      54. 31.100 / 54. 31.100
  libavcodec     56. 60.100 / 56. 60.100
  libavformat    56. 40.101 / 56. 40.101
  libavdevice    56.  4.100 / 56.  4.100
  libavfilter     5. 40.101 /  5. 40.101
  libavresample   2.  1.  0 /  2.  1.  0
  libswscale      3.  1.101 /  3.  1.101
  libswresample   1.  2.101 /  1.  2.101
  libpostproc    53.  3.100 / 53.  3.100
Input #0, mov,mp4,m4a,3gp,3g2,mj2, from '/home/horvathandras/vatic/vatic/public/videouploads/DJI_0045_30m_szarvasragas_homokmegy_20180603_napos_napraforgo_T3.avi':
  Metadata:
    major_brand     : qt  
    minor_version   : 537986816
    compatible_brands: qt  
    creation_time   : 2018-06-03 08:34:04
    location        : +46.518435+19.146173+30.100
    location-{    : +46.518435+19.146173+30.100
    comment         : DE=None, Mode=P, DSW=0001
  Duration: 00:00:23.48, start: 0.000000, bitrate: 100998 kb/s
    Stream #0:0(eng): Video: h264 (High) (avc1 / 0x31637661), yuv420p(tv, bt709), 4096x2160 [SAR 1:1 DAR 256:135], 100990 kb/s, 50 fps, 50 tbr, 50k tbn, 100 tbc (default)
    Metadata:
      creation_time   : 2018-06-03 08:34:04
      handler_name    : DJI.AVC
      encoder         : AVC encoder
    Stream #0:1(eng): Data: none (priv / 0x76697270), 4 kb/s
    Metadata:
      creation_time   : 2018-06-03 08:34:04
      handler_name    : DJI.Meta
Please use -b:a or -b:v, -b is ambiguous
[swscaler @ 0xaaba00] deprecated pixel format used, make sure you did set range correctly
Output #0, image2, to '/tmp/pyvision-ffmpeg-165032358/%d.jpg':
  Metadata:
    major_brand     : qt  
    minor_version   : 537986816
    compatible_brands: qt  
    comment         : DE=None, Mode=P, DSW=0001
    location        : +46.518435+19.146173+30.100
    location-{    : +46.518435+19.146173+30.100
    encoder         : Lavf56.40.101
    Stream #0:0(eng): Video: mjpeg, yuvj420p(pc), 4096x2160 [SAR 1:1 DAR 256:135], q=2-31, 10000 kb/s, 50 fps, 50 tbn, 50 tbc (default)
    Metadata:
      creation_time   : 2018-06-03 08:34:04
      handler_name    : DJI.AVC
      encoder         : Lavc56.60.100 mjpeg
Stream mapping:
  Stream #0:0 -> #0:0 (h264 (native) -> mjpeg (native))
Press [q] to stop, [?] for help
frame=    1 fps=0.5 q=19.8 size=N/A time=00:00:00.02 bitrate=N/A    frame=    3 fps=1.2 q=24.1 size=N/A time=00:00:00.06 bitrate=N/A    frame=    6 fps=1.9 q=24.8 size=N/A time=00:00:00.12 bitrate=N/A    frame=    8 fps=2.1 q=24.8 size=N/A time=00:00:00.16 bitrate=N/A    frame=   10 fps=2.2 q=24.8 size=N/A time=00:00:00.20 bitrate=N/A    frame=   12 fps=2.3 q=24.8 size=N/A time=00:00:00.24 bitrate=N/A    frame=   14 fps=2.4 q=24.8 size=N/A time=00:00:00.28 bitrate=N/A    frame=   16 fps=2.5 q=24.8 size=N/A time=00:00:00.32 bitrate=N/A    frame=   18 fps=2.6 q=24.8 size=N/A time=00:00:00.36 bitrate=N/A    frame=   20 fps=2.6 q=24.8 size=N/A time=00:00:00.40 bitrate=N/A    frame=   22 fps=2.7 q=24.8 size=N/A time=00:00:00.44 bitrate=N/A    frame=   24 fps=2.7 q=24.8 size=N/A time=00:00:00.48 bitrate=N/A    frame=   26 fps=2.8 q=24.8 size=N/A time=00:00:00.52 bitrate=N/A    frame=   28 fps=2.8 q=24.8 size=N/A time=00:00:00.56 bitrate=N/A    frame=   30 fps=2.8 q=24.8 size=N/A time=00:00:00.60 bitrate=N/A    frame=   32 fps=2.8 q=24.8 size=N/A time=00:00:00.64 bitrate=N/A    frame=   34 fps=2.9 q=24.8 size=N/A time=00:00:00.68 bitrate=N/A    frame=   36 fps=2.9 q=24.8 size=N/A time=00:00:00.72 bitrate=N/A    frame=   38 fps=2.9 q=24.8 size=N/A time=00:00:00.76 bitrate=N/A    frame=   40 fps=3.0 q=24.8 size=N/A time=00:00:00.80 bitrate=N/A    frame=   42 fps=3.0 q=24.8 size=N/A time=00:00:00.84 bitrate=N/A    frame=   44 fps=3.0 q=24.8 size=N/A time=00:00:00.88 bitrate=N/A    frame=   46 fps=3.0 q=24.8 size=N/A time=00:00:00.92 bitrate=N/A    frame=   48 fps=3.0 q=24.8 size=N/A time=00:00:00.96 bitrate=N/A    frame=   51 fps=3.1 q=24.8 size=N/A time=00:00:01.02 bitrate=N/A    frame=   54 fps=3.1 q=24.8 size=N/A time=00:00:01.08 bitrate=N/A    frame=   56 fps=3.1 q=24.8 size=N/A time=00:00:01.12 bitrate=N/A    frame=   58 fps=3.1 q=24.8 size=N/A time=00:00:01.16 bitrate=N/A    frame=   60 fps=3.1 q=24.8 size=N/A time=00:00:01.20 bitrate=N/A    frame=   62 fps=3.1 q=24.8 size=N/A time=00:00:01.24 bitrate=N/A    frame=   64 fps=3.1 q=24.8 size=N/A time=00:00:01.28 bitrate=N/A    frame=   66 fps=3.1 q=24.8 size=N/A time=00:00:01.32 bitrate=N/A    frame=   68 fps=3.2 q=24.8 size=N/A time=00:00:01.36 bitrate=N/A    frame=   70 fps=3.2 q=24.8 size=N/A time=00:00:01.40 bitrate=N/A    frame=   73 fps=3.2 q=24.8 size=N/A time=00:00:01.46 bitrate=N/A    frame=   75 fps=3.2 q=24.8 size=N/A time=00:00:01.50 bitrate=N/A    frame=   78 fps=3.2 q=24.8 size=N/A time=00:00:01.56 bitrate=N/A    frame=   80 fps=3.2 q=24.8 size=N/A time=00:00:01.60 bitrate=N/A    frame=   82 fps=3.2 q=24.8 size=N/A time=00:00:01.64 bitrate=N/A    frame=   84 fps=3.2 q=24.8 size=N/A time=00:00:01.68 bitrate=N/A    frame=   87 fps=3.3 q=24.8 size=N/A time=00:00:01.74 bitrate=N/A    frame=   89 fps=3.2 q=24.8 size=N/A time=00:00:01.78 bitrate=N/A    frame=   91 fps=3.3 q=24.8 size=N/A time=00:00:01.82 bitrate=N/A    frame=   93 fps=3.3 q=24.8 size=N/A time=00:00:01.86 bitrate=N/A    frame=   95 fps=3.3 q=24.8 size=N/A time=00:00:01.90 bitrate=N/A    frame=   97 fps=3.3 q=24.8 size=N/A time=00:00:01.94 bitrate=N/A    frame=   99 fps=3.3 q=24.8 size=N/A time=00:00:01.98 bitrate=N/A    frame=  101 fps=3.3 q=24.8 size=N/A time=00:00:02.02 bitrate=N/A    frame=  103 fps=3.3 q=24.8 size=N/A time=00:00:02.06 bitrate=N/A    frame=  105 fps=3.3 q=24.8 size=N/A time=00:00:02.10 bitrate=N/A    frame=  107 fps=3.3 q=24.8 size=N/A time=00:00:02.14 bitrate=N/A    frame=  109 fps=3.3 q=24.8 size=N/A time=00:00:02.18 bitrate=N/A    frame=  111 fps=3.3 q=24.8 size=N/A time=00:00:02.22 bitrate=N/A    frame=  113 fps=3.3 q=24.8 size=N/A time=00:00:02.26 bitrate=N/A    frame=  115 fps=3.3 q=24.8 size=N/A time=00:00:02.30 bitrate=N/A    frame=  118 fps=3.3 q=24.8 size=N/A time=00:00:02.36 bitrate=N/A    frame=  120 fps=3.3 q=24.8 size=N/A time=00:00:02.40 bitrate=N/A    frame=  122 fps=3.3 q=24.8 size=N/A time=00:00:02.44 bitrate=N/A    frame=  124 fps=3.3 q=24.8 size=N/A time=00:00:02.48 bitrate=N/A    frame=  126 fps=3.3 q=24.8 size=N/A time=00:00:02.52 bitrate=N/A    frame=  128 fps=3.3 q=24.8 size=N/A time=00:00:02.56 bitrate=N/A    frame=  130 fps=3.3 q=24.8 size=N/A time=00:00:02.60 bitrate=N/A    frame=  132 fps=3.3 q=24.8 size=N/A time=00:00:02.64 bitrate=N/A    frame=  134 fps=3.3 q=24.8 size=N/A time=00:00:02.68 bitrate=N/A    frame=  137 fps=3.3 q=24.8 size=N/A time=00:00:02.74 bitrate=N/A    frame=  141 fps=3.3 q=24.8 size=N/A time=00:00:02.82 bitrate=N/A    frame=  143 fps=3.3 q=24.8 size=N/A time=00:00:02.86 bitrate=N/A    frame=  145 fps=3.3 q=24.8 size=N/A time=00:00:02.90 bitrate=N/A    frame=  147 fps=3.3 q=24.8 size=N/A time=00:00:02.94 bitrate=N/A    frame=  149 fps=3.3 q=24.8 size=N/A time=00:00:02.98 bitrate=N/A    frame=  152 fps=3.4 q=24.8 size=N/A time=00:00:03.04 bitrate=N/A    frame=  155 fps=3.4 q=24.8 size=N/A time=00:00:03.10 bitrate=N/A    frame=  157 fps=3.4 q=24.8 size=N/A time=00:00:03.14 bitrate=N/A    frame=  159 fps=3.4 q=24.8 size=N/A time=00:00:03.18 bitrate=N/A    frame=  161 fps=3.4 q=24.8 size=N/A time=00:00:03.22 bitrate=N/A    frame=  163 fps=3.4 q=24.8 size=N/A time=00:00:03.26 bitrate=N/A    frame=  165 fps=3.4 q=24.8 size=N/A time=00:00:03.30 bitrate=N/A    frame=  167 fps=3.4 q=24.8 size=N/A time=00:00:03.34 bitrate=N/A    frame=  170 fps=3.4 q=24.8 size=N/A time=00:00:03.40 bitrate=N/A    frame=  172 fps=3.4 q=24.8 size=N/A time=00:00:03.44 bitrate=N/A    frame=  174 fps=3.4 q=24.8 size=N/A time=00:00:03.48 bitrate=N/A    frame=  176 fps=3.4 q=24.8 size=N/A time=00:00:03.52 bitrate=N/A    frame=  178 fps=3.4 q=24.8 size=N/A time=00:00:03.56 bitrate=N/A    frame=  180 fps=3.4 q=24.8 size=N/A time=00:00:03.60 bitrate=N/A    frame=  183 fps=3.4 q=24.8 size=N/A time=00:00:03.66 bitrate=N/A    frame=  185 fps=3.4 q=24.8 size=N/A time=00:00:03.70 bitrate=N/A    frame=  187 fps=3.4 q=24.8 size=N/A time=00:00:03.74 bitrate=N/A    frame=  189 fps=3.4 q=24.8 size=N/A time=00:00:03.78 bitrate=N/A    frame=  191 fps=3.4 q=24.8 size=N/A time=00:00:03.82 bitrate=N/A    frame=  193 fps=3.4 q=24.8 size=N/A time=00:00:03.86 bitrate=N/A    frame=  195 fps=3.4 q=24.8 size=N/A time=00:00:03.90 bitrate=N/A    frame=  197 fps=3.4 q=24.8 size=N/A time=00:00:03.94 bitrate=N/A    frame=  200 fps=3.4 q=24.8 size=N/A time=00:00:04.00 bitrate=N/A    frame=  202 fps=3.4 q=24.8 size=N/A time=00:00:04.04 bitrate=N/A    frame=  204 fps=3.4 q=24.8 size=N/A time=00:00:04.08 bitrate=N/A    frame=  207 fps=3.4 q=24.8 size=N/A time=00:00:04.14 bitrate=N/A    frame=  209 fps=3.4 q=24.8 size=N/A time=00:00:04.18 bitrate=N/A    frame=  211 fps=3.5 q=24.8 size=N/A time=00:00:04.22 bitrate=N/A    frame=  214 fps=3.5 q=24.8 size=N/A time=00:00:04.28 bitrate=N/A    frame=  216 fps=3.5 q=24.8 size=N/A time=00:00:04.32 bitrate=N/A    frame=  219 fps=3.5 q=24.8 size=N/A time=00:00:04.38 bitrate=N/A    frame=  222 fps=3.5 q=24.8 size=N/A time=00:00:04.44 bitrate=N/A    frame=  225 fps=3.5 q=24.8 size=N/A time=00:00:04.50 bitrate=N/A    frame=  227 fps=3.5 q=24.8 size=N/A time=00:00:04.54 bitrate=N/A    frame=  230 fps=3.5 q=24.8 size=N/A time=00:00:04.60 bitrate=N/A    frame=  233 fps=3.5 q=24.8 size=N/A time=00:00:04.66 bitrate=N/A    frame=  236 fps=3.5 q=24.8 size=N/A time=00:00:04.72 bitrate=N/A    frame=  239 fps=3.5 q=24.8 size=N/A time=00:00:04.78 bitrate=N/A    frame=  241 fps=3.5 q=24.8 size=N/A time=00:00:04.82 bitrate=N/A    frame=  243 fps=3.5 q=24.8 size=N/A time=00:00:04.86 bitrate=N/A    frame=  245 fps=3.5 q=24.8 size=N/A time=00:00:04.90 bitrate=N/A    frame=  247 fps=3.5 q=24.8 size=N/A time=00:00:04.94 bitrate=N/A    frame=  250 fps=3.6 q=24.8 size=N/A time=00:00:05.00 bitrate=N/A    frame=  253 fps=3.6 q=24.8 size=N/A time=00:00:05.06 bitrate=N/A    frame=  255 fps=3.6 q=24.8 size=N/A time=00:00:05.10 bitrate=N/A    frame=  257 fps=3.6 q=24.8 size=N/A time=00:00:05.14 bitrate=N/A    frame=  260 fps=3.6 q=24.8 size=N/A time=00:00:05.20 bitrate=N/A    frame=  262 fps=3.6 q=24.8 size=N/A time=00:00:05.24 bitrate=N/A    frame=  264 fps=3.6 q=24.8 size=N/A time=00:00:05.28 bitrate=N/A    frame=  266 fps=3.6 q=24.8 size=N/A time=00:00:05.32 bitrate=N/A    frame=  269 fps=3.6 q=24.8 size=N/A time=00:00:05.38 bitrate=N/A    frame=  271 fps=3.6 q=24.8 size=N/A time=00:00:05.42 bitrate=N/A    frame=  273 fps=3.6 q=24.8 size=N/A time=00:00:05.46 bitrate=N/A    frame=  275 fps=3.6 q=24.8 size=N/A time=00:00:05.50 bitrate=N/A    frame=  278 fps=3.6 q=24.8 size=N/A time=00:00:05.56 bitrate=N/A    frame=  281 fps=3.6 q=24.8 size=N/A time=00:00:05.62 bitrate=N/A    frame=  284 fps=3.6 q=24.8 size=N/A time=00:00:05.68 bitrate=N/A    frame=  286 fps=3.6 q=24.8 size=N/A time=00:00:05.72 bitrate=N/A    frame=  288 fps=3.6 q=24.8 size=N/A time=00:00:05.76 bitrate=N/A    frame=  291 fps=3.6 q=24.8 size=N/A time=00:00:05.82 bitrate=N/A    frame=  294 fps=3.6 q=24.8 size=N/A time=00:00:05.88 bitrate=N/A    frame=  296 fps=3.6 q=24.8 size=N/A time=00:00:05.92 bitrate=N/A    frame=  298 fps=3.6 q=24.8 size=N/A time=00:00:05.96 bitrate=N/A    frame=  300 fps=3.6 q=24.8 size=N/A time=00:00:06.00 bitrate=N/A    frame=  303 fps=3.6 q=24.8 size=N/A time=00:00:06.06 bitrate=N/A    frame=  305 fps=3.6 q=24.8 size=N/A time=00:00:06.10 bitrate=N/A    frame=  308 fps=3.6 q=24.8 size=N/A time=00:00:06.16 bitrate=N/A    frame=  311 fps=3.6 q=24.8 size=N/A time=00:00:06.22 bitrate=N/A    frame=  315 fps=3.7 q=24.8 size=N/A time=00:00:06.30 bitrate=N/A    frame=  318 fps=3.7 q=24.8 size=N/A time=00:00:06.36 bitrate=N/A    frame=  320 fps=3.7 q=24.8 size=N/A time=00:00:06.40 bitrate=N/A    frame=  323 fps=3.7 q=24.8 size=N/A time=00:00:06.46 bitrate=N/A    frame=  326 fps=3.7 q=24.8 size=N/A time=00:00:06.52 bitrate=N/A    frame=  328 fps=3.7 q=24.8 size=N/A time=00:00:06.56 bitrate=N/A    frame=  331 fps=3.7 q=24.8 size=N/A time=00:00:06.62 bitrate=N/A    frame=  333 fps=3.7 q=24.8 size=N/A time=00:00:06.66 bitrate=N/A    frame=  336 fps=3.7 q=24.8 size=N/A time=00:00:06.72 bitrate=N/A    frame=  339 fps=3.7 q=24.8 size=N/A time=00:00:06.78 bitrate=N/A    frame=  341 fps=3.7 q=24.8 size=N/A time=00:00:06.82 bitrate=N/A    frame=  344 fps=3.7 q=24.8 size=N/A time=00:00:06.88 bitrate=N/A    frame=  346 fps=3.7 q=24.8 size=N/A time=00:00:06.92 bitrate=N/A    frame=  348 fps=3.7 q=24.8 size=N/A time=00:00:06.96 bitrate=N/A    frame=  350 fps=3.7 q=24.8 size=N/A time=00:00:07.00 bitrate=N/A    frame=  352 fps=3.7 q=24.8 size=N/A time=00:00:07.04 bitrate=N/A    frame=  355 fps=3.7 q=24.8 size=N/A time=00:00:07.10 bitrate=N/A    frame=  359 fps=3.7 q=24.8 size=N/A time=00:00:07.18 bitrate=N/A    frame=  361 fps=3.7 q=24.8 size=N/A time=00:00:07.22 bitrate=N/A    frame=  364 fps=3.7 q=24.8 size=N/A time=00:00:07.28 bitrate=N/A    frame=  367 fps=3.7 q=24.8 size=N/A time=00:00:07.34 bitrate=N/A    frame=  370 fps=3.7 q=24.8 size=N/A time=00:00:07.40 bitrate=N/A    frame=  373 fps=3.7 q=24.8 size=N/A time=00:00:07.46 bitrate=N/A    frame=  375 fps=3.7 q=24.8 size=N/A time=00:00:07.50 bitrate=N/A    frame=  378 fps=3.7 q=24.8 size=N/A time=00:00:07.56 bitrate=N/A    frame=  380 fps=3.7 q=24.8 size=N/A time=00:00:07.60 bitrate=N/A    frame=  383 fps=3.7 q=24.8 size=N/A time=00:00:07.66 bitrate=N/A    frame=  386 fps=3.8 q=24.8 size=N/A time=00:00:07.72 bitrate=N/A    frame=  388 fps=3.7 q=24.8 size=N/A time=00:00:07.76 bitrate=N/A    frame=  391 fps=3.8 q=24.8 size=N/A time=00:00:07.82 bitrate=N/A    frame=  394 fps=3.8 q=24.8 size=N/A time=00:00:07.88 bitrate=N/A    frame=  397 fps=3.8 q=24.8 size=N/A time=00:00:07.94 bitrate=N/A    frame=  400 fps=3.8 q=24.8 size=N/A time=00:00:08.00 bitrate=N/A    frame=  402 fps=3.8 q=24.8 size=N/A time=00:00:08.04 bitrate=N/A    frame=  405 fps=3.8 q=24.8 size=N/A time=00:00:08.10 bitrate=N/A    frame=  408 fps=3.8 q=24.8 size=N/A time=00:00:08.16 bitrate=N/A    frame=  411 fps=3.8 q=24.8 size=N/A time=00:00:08.22 bitrate=N/A    frame=  414 fps=3.8 q=24.8 size=N/A time=00:00:08.28 bitrate=N/A    frame=  417 fps=3.8 q=24.8 size=N/A time=00:00:08.34 bitrate=N/A    frame=  420 fps=3.8 q=24.8 size=N/A time=00:00:08.40 bitrate=N/A    frame=  423 fps=3.8 q=24.8 size=N/A time=00:00:08.46 bitrate=N/A    frame=  426 fps=3.8 q=24.8 size=N/A time=00:00:08.52 bitrate=N/A    frame=  428 fps=3.8 q=24.8 size=N/A time=00:00:08.56 bitrate=N/A    frame=  431 fps=3.8 q=24.8 size=N/A time=00:00:08.62 bitrate=N/A    frame=  433 fps=3.8 q=24.8 size=N/A time=00:00:08.66 bitrate=N/A    frame=  436 fps=3.8 q=24.8 size=N/A time=00:00:08.72 bitrate=N/A    frame=  438 fps=3.8 q=24.8 size=N/A time=00:00:08.76 bitrate=N/A    frame=  440 fps=3.8 q=24.8 size=N/A time=00:00:08.80 bitrate=N/A    frame=  443 fps=3.8 q=24.8 size=N/A time=00:00:08.86 bitrate=N/A    frame=  446 fps=3.8 q=24.8 size=N/A time=00:00:08.92 bitrate=N/A    frame=  449 fps=3.8 q=24.8 size=N/A time=00:00:08.98 bitrate=N/A    frame=  451 fps=3.8 q=24.8 size=N/A time=00:00:09.02 bitrate=N/A    frame=  454 fps=3.8 q=24.8 size=N/A time=00:00:09.08 bitrate=N/A    frame=  457 fps=3.8 q=24.8 size=N/A time=00:00:09.14 bitrate=N/A    frame=  460 fps=3.8 q=24.8 size=N/A time=00:00:09.20 bitrate=N/A    frame=  463 fps=3.8 q=24.8 size=N/A time=00:00:09.26 bitrate=N/A    frame=  466 fps=3.8 q=24.8 size=N/A time=00:00:09.32 bitrate=N/A    frame=  468 fps=3.8 q=24.8 size=N/A time=00:00:09.36 bitrate=N/A    frame=  470 fps=3.8 q=24.8 size=N/A time=00:00:09.40 bitrate=N/A    frame=  472 fps=3.8 q=24.8 size=N/A time=00:00:09.44 bitrate=N/A    frame=  475 fps=3.8 q=24.8 size=N/A time=00:00:09.50 bitrate=N/A    frame=  477 fps=3.8 q=24.8 size=N/A time=00:00:09.54 bitrate=N/A    frame=  479 fps=3.8 q=24.8 size=N/A time=00:00:09.58 bitrate=N/A    frame=  481 fps=3.8 q=24.8 size=N/A time=00:00:09.62 bitrate=N/A    frame=  484 fps=3.8 q=24.8 size=N/A time=00:00:09.68 bitrate=N/A    frame=  486 fps=3.8 q=24.8 size=N/A time=00:00:09.72 bitrate=N/A    frame=  489 fps=3.8 q=24.8 size=N/A time=00:00:09.78 bitrate=N/A    frame=  492 fps=3.8 q=24.8 size=N/A time=00:00:09.84 bitrate=N/A    frame=  495 fps=3.8 q=24.8 size=N/A time=00:00:09.90 bitrate=N/A    frame=  498 fps=3.8 q=24.8 size=N/A time=00:00:09.96 bitrate=N/A    frame=  500 fps=3.8 q=24.8 size=N/A time=00:00:10.00 bitrate=N/A    frame=  503 fps=3.8 q=24.8 size=N/A time=00:00:10.06 bitrate=N/A    frame=  506 fps=3.8 q=24.8 size=N/A time=00:00:10.12 bitrate=N/A    frame=  508 fps=3.8 q=24.8 size=N/A time=00:00:10.16 bitrate=N/A    frame=  510 fps=3.8 q=24.8 size=N/A time=00:00:10.20 bitrate=N/A    frame=  512 fps=3.8 q=24.8 size=N/A time=00:00:10.24 bitrate=N/A    frame=  515 fps=3.9 q=24.8 size=N/A time=00:00:10.30 bitrate=N/A    frame=  518 fps=3.9 q=24.8 size=N/A time=00:00:10.36 bitrate=N/A    frame=  520 fps=3.9 q=24.8 size=N/A time=00:00:10.40 bitrate=N/A    frame=  522 fps=3.9 q=24.8 size=N/A time=00:00:10.44 bitrate=N/A    frame=  525 fps=3.9 q=24.8 size=N/A time=00:00:10.50 bitrate=N/A    frame=  528 fps=3.9 q=24.8 size=N/A time=00:00:10.56 bitrate=N/A    frame=  532 fps=3.9 q=24.8 size=N/A time=00:00:10.64 bitrate=N/A    frame=  535 fps=3.9 q=24.8 size=N/A time=00:00:10.70 bitrate=N/A    frame=  538 fps=3.9 q=24.8 size=N/A time=00:00:10.76 bitrate=N/A    frame=  540 fps=3.9 q=24.8 size=N/A time=00:00:10.80 bitrate=N/A    frame=  543 fps=3.9 q=24.8 size=N/A time=00:00:10.86 bitrate=N/A    frame=  546 fps=3.9 q=24.8 size=N/A time=00:00:10.92 bitrate=N/A    frame=  549 fps=3.9 q=24.8 size=N/A time=00:00:10.98 bitrate=N/A    frame=  551 fps=3.9 q=24.8 size=N/A time=00:00:11.02 bitrate=N/A    frame=  553 fps=3.9 q=24.8 size=N/A time=00:00:11.06 bitrate=N/A    frame=  555 fps=3.9 q=24.8 size=N/A time=00:00:11.10 bitrate=N/A    frame=  558 fps=3.9 q=24.8 size=N/A time=00:00:11.16 bitrate=N/A    frame=  561 fps=3.9 q=24.8 size=N/A time=00:00:11.22 bitrate=N/A    frame=  564 fps=3.9 q=24.8 size=N/A time=00:00:11.28 bitrate=N/A    frame=  566 fps=3.9 q=24.8 size=N/A time=00:00:11.32 bitrate=N/A    frame=  569 fps=3.9 q=24.8 size=N/A time=00:00:11.38 bitrate=N/A    frame=  572 fps=3.9 q=24.8 size=N/A time=00:00:11.44 bitrate=N/A    frame=  574 fps=3.9 q=24.8 size=N/A time=00:00:11.48 bitrate=N/A    frame=  576 fps=3.9 q=24.8 size=N/A time=00:00:11.52 bitrate=N/A    frame=  579 fps=3.9 q=24.8 size=N/A time=00:00:11.58 bitrate=N/A    frame=  582 fps=3.9 q=24.8 size=N/A time=00:00:11.64 bitrate=N/A    frame=  585 fps=3.9 q=24.8 size=N/A time=00:00:11.70 bitrate=N/A    frame=  587 fps=3.9 q=24.8 size=N/A time=00:00:11.74 bitrate=N/A    frame=  590 fps=3.9 q=24.8 size=N/A time=00:00:11.80 bitrate=N/A    frame=  593 fps=3.9 q=24.8 size=N/A time=00:00:11.86 bitrate=N/A    frame=  596 fps=3.9 q=24.8 size=N/A time=00:00:11.92 bitrate=N/A    frame=  599 fps=3.9 q=24.8 size=N/A time=00:00:11.98 bitrate=N/A    frame=  602 fps=3.9 q=24.8 size=N/A time=00:00:12.04 bitrate=N/A    frame=  605 fps=3.9 q=24.8 size=N/A time=00:00:12.10 bitrate=N/A    frame=  608 fps=3.9 q=24.8 size=N/A time=00:00:12.16 bitrate=N/A    frame=  611 fps=3.9 q=24.8 size=N/A time=00:00:12.22 bitrate=N/A    frame=  613 fps=3.9 q=24.8 size=N/A time=00:00:12.26 bitrate=N/A    frame=  615 fps=3.9 q=24.8 size=N/A time=00:00:12.30 bitrate=N/A    frame=  617 fps=3.9 q=24.8 size=N/A time=00:00:12.34 bitrate=N/A    frame=  620 fps=3.9 q=24.8 size=N/A time=00:00:12.40 bitrate=N/A    frame=  622 fps=3.9 q=24.8 size=N/A time=00:00:12.44 bitrate=N/A    frame=  625 fps=3.9 q=24.8 size=N/A time=00:00:12.50 bitrate=N/A    frame=  628 fps=3.9 q=24.8 size=N/A time=00:00:12.56 bitrate=N/A    frame=  630 fps=3.9 q=24.8 size=N/A time=00:00:12.60 bitrate=N/A    frame=  632 fps=3.9 q=24.8 size=N/A time=00:00:12.64 bitrate=N/A    frame=  635 fps=3.9 q=24.8 size=N/A time=00:00:12.70 bitrate=N/A    frame=  638 fps=3.9 q=24.8 size=N/A time=00:00:12.76 bitrate=N/A    frame=  640 fps=3.9 q=24.8 size=N/A time=00:00:12.80 bitrate=N/A    frame=  642 fps=3.9 q=24.8 size=N/A time=00:00:12.84 bitrate=N/A    frame=  644 fps=3.9 q=24.8 size=N/A time=00:00:12.88 bitrate=N/A    frame=  646 fps=3.9 q=24.8 size=N/A time=00:00:12.92 bitrate=N/A    frame=  649 fps=3.9 q=24.8 size=N/A time=00:00:12.98 bitrate=N/A    frame=  652 fps=3.9 q=24.8 size=N/A time=00:00:13.04 bitrate=N/A    frame=  655 fps=3.9 q=24.8 size=N/A time=00:00:13.10 bitrate=N/A    frame=  657 fps=3.9 q=24.8 size=N/A time=00:00:13.14 bitrate=N/A    frame=  660 fps=3.9 q=24.8 size=N/A time=00:00:13.20 bitrate=N/A    frame=  663 fps=3.9 q=24.8 size=N/A time=00:00:13.26 bitrate=N/A    frame=  666 fps=3.9 q=24.8 size=N/A time=00:00:13.32 bitrate=N/A    frame=  669 fps=3.9 q=24.8 size=N/A time=00:00:13.38 bitrate=N/A    frame=  672 fps=3.9 q=24.8 size=N/A time=00:00:13.44 bitrate=N/A    frame=  674 fps=3.9 q=24.8 size=N/A time=00:00:13.48 bitrate=N/A    frame=  676 fps=3.9 q=24.8 size=N/A time=00:00:13.52 bitrate=N/A    frame=  679 fps=3.9 q=24.8 size=N/A time=00:00:13.58 bitrate=N/A    frame=  681 fps=3.9 q=24.8 size=N/A time=00:00:13.62 bitrate=N/A    frame=  684 fps=3.9 q=24.8 size=N/A time=00:00:13.68 bitrate=N/A    frame=  687 fps=3.9 q=24.8 size=N/A time=00:00:13.74 bitrate=N/A    frame=  689 fps=3.9 q=24.8 size=N/A time=00:00:13.78 bitrate=N/A    frame=  692 fps=3.9 q=24.8 size=N/A time=00:00:13.84 bitrate=N/A    frame=  695 fps=3.9 q=24.8 size=N/A time=00:00:13.90 bitrate=N/A    frame=  698 fps=3.9 q=24.8 size=N/A time=00:00:13.96 bitrate=N/A    frame=  701 fps=3.9 q=24.8 size=N/A time=00:00:14.02 bitrate=N/A    frame=  704 fps=3.9 q=24.8 size=N/A time=00:00:14.08 bitrate=N/A    frame=  707 fps=3.9 q=24.8 size=N/A time=00:00:14.14 bitrate=N/A    frame=  710 fps=3.9 q=24.8 size=N/A time=00:00:14.20 bitrate=N/A    frame=  714 fps=4.0 q=24.8 size=N/A time=00:00:14.28 bitrate=N/A    frame=  717 fps=4.0 q=24.8 size=N/A time=00:00:14.34 bitrate=N/A    frame=  719 fps=4.0 q=24.8 size=N/A time=00:00:14.38 bitrate=N/A    frame=  721 fps=4.0 q=24.8 size=N/A time=00:00:14.42 bitrate=N/A    frame=  724 fps=4.0 q=24.8 size=N/A time=00:00:14.48 bitrate=N/A    frame=  727 fps=4.0 q=24.8 size=N/A time=00:00:14.54 bitrate=N/A    frame=  730 fps=4.0 q=24.8 size=N/A time=00:00:14.60 bitrate=N/A    frame=  732 fps=4.0 q=24.8 size=N/A time=00:00:14.64 bitrate=N/A    frame=  735 fps=4.0 q=24.8 size=N/A time=00:00:14.70 bitrate=N/A    frame=  738 fps=4.0 q=24.8 size=N/A time=00:00:14.76 bitrate=N/A    frame=  741 fps=4.0 q=24.8 size=N/A time=00:00:14.82 bitrate=N/A    frame=  743 fps=4.0 q=24.8 size=N/A time=00:00:14.86 bitrate=N/A    frame=  746 fps=4.0 q=24.8 size=N/A time=00:00:14.92 bitrate=N/A    frame=  749 fps=4.0 q=24.8 size=N/A time=00:00:14.98 bitrate=N/A    frame=  751 fps=4.0 q=24.8 size=N/A time=00:00:15.02 bitrate=N/A    frame=  754 fps=4.0 q=24.8 size=N/A time=00:00:15.08 bitrate=N/A    frame=  758 fps=4.0 q=24.8 size=N/A time=00:00:15.16 bitrate=N/A    frame=  761 fps=4.0 q=24.8 size=N/A time=00:00:15.22 bitrate=N/A    frame=  763 fps=4.0 q=24.8 size=N/A time=00:00:15.26 bitrate=N/A    frame=  766 fps=4.0 q=24.8 size=N/A time=00:00:15.32 bitrate=N/A    frame=  769 fps=4.0 q=24.8 size=N/A time=00:00:15.38 bitrate=N/A    frame=  772 fps=4.0 q=24.8 size=N/A time=00:00:15.44 bitrate=N/A    frame=  775 fps=4.0 q=24.8 size=N/A time=00:00:15.50 bitrate=N/A    frame=  777 fps=4.0 q=24.8 size=N/A time=00:00:15.54 bitrate=N/A    frame=  779 fps=4.0 q=24.8 size=N/A time=00:00:15.58 bitrate=N/A    frame=  783 fps=4.0 q=24.8 size=N/A time=00:00:15.66 bitrate=N/A    frame=  786 fps=4.0 q=24.8 size=N/A time=00:00:15.72 bitrate=N/A    frame=  789 fps=4.0 q=24.8 size=N/A time=00:00:15.78 bitrate=N/A    frame=  791 fps=4.0 q=24.8 size=N/A time=00:00:15.82 bitrate=N/A    frame=  794 fps=4.0 q=24.8 size=N/A time=00:00:15.88 bitrate=N/A    frame=  797 fps=4.0 q=24.8 size=N/A time=00:00:15.94 bitrate=N/A    frame=  800 fps=4.0 q=24.8 size=N/A time=00:00:16.00 bitrate=N/A    frame=  802 fps=4.0 q=24.8 size=N/A time=00:00:16.04 bitrate=N/A    frame=  804 fps=4.0 q=24.8 size=N/A time=00:00:16.08 bitrate=N/A    frame=  807 fps=4.0 q=24.8 size=N/A time=00:00:16.14 bitrate=N/A    frame=  809 fps=4.0 q=24.8 size=N/A time=00:00:16.18 bitrate=N/A    frame=  812 fps=4.0 q=24.8 size=N/A time=00:00:16.24 bitrate=N/A    frame=  815 fps=4.0 q=24.8 size=N/A time=00:00:16.30 bitrate=N/A    frame=  818 fps=4.0 q=24.8 size=N/A time=00:00:16.36 bitrate=N/A    frame=  820 fps=4.0 q=24.8 size=N/A time=00:00:16.40 bitrate=N/A    frame=  823 fps=4.0 q=24.8 size=N/A time=00:00:16.46 bitrate=N/A    frame=  825 fps=4.0 q=24.8 size=N/A time=00:00:16.50 bitrate=N/A    frame=  827 fps=4.0 q=24.8 size=N/A time=00:00:16.54 bitrate=N/A    frame=  829 fps=4.0 q=24.8 size=N/A time=00:00:16.58 bitrate=N/A    frame=  831 fps=4.0 q=24.8 size=N/A time=00:00:16.62 bitrate=N/A    frame=  833 fps=4.0 q=24.8 size=N/A time=00:00:16.66 bitrate=N/A    frame=  835 fps=4.0 q=24.8 size=N/A time=00:00:16.70 bitrate=N/A    frame=  838 fps=4.0 q=24.8 size=N/A time=00:00:16.76 bitrate=N/A    frame=  840 fps=4.0 q=24.8 size=N/A time=00:00:16.80 bitrate=N/A    frame=  842 fps=4.0 q=24.8 size=N/A time=00:00:16.84 bitrate=N/A    frame=  844 fps=4.0 q=24.8 size=N/A time=00:00:16.88 bitrate=N/A    frame=  846 fps=4.0 q=24.8 size=N/A time=00:00:16.92 bitrate=N/A    frame=  848 fps=4.0 q=24.8 size=N/A time=00:00:16.96 bitrate=N/A    frame=  850 fps=4.0 q=24.8 size=N/A time=00:00:17.00 bitrate=N/A    frame=  853 fps=4.0 q=24.8 size=N/A time=00:00:17.06 bitrate=N/A    frame=  855 fps=4.0 q=24.8 size=N/A time=00:00:17.10 bitrate=N/A    frame=  857 fps=4.0 q=24.8 size=N/A time=00:00:17.14 bitrate=N/A    frame=  859 fps=4.0 q=24.8 size=N/A time=00:00:17.18 bitrate=N/A    frame=  861 fps=4.0 q=24.8 size=N/A time=00:00:17.22 bitrate=N/A    frame=  863 fps=4.0 q=24.8 size=N/A time=00:00:17.26 bitrate=N/A    frame=  865 fps=4.0 q=24.8 size=N/A time=00:00:17.30 bitrate=N/A    frame=  867 fps=4.0 q=24.8 size=N/A time=00:00:17.34 bitrate=N/A    frame=  869 fps=4.0 q=24.8 size=N/A time=00:00:17.38 bitrate=N/A    frame=  872 fps=4.0 q=24.8 size=N/A time=00:00:17.44 bitrate=N/A    frame=  875 fps=4.0 q=24.8 size=N/A time=00:00:17.50 bitrate=N/A    frame=  877 fps=4.0 q=24.8 size=N/A time=00:00:17.54 bitrate=N/A    frame=  879 fps=4.0 q=24.8 size=N/A time=00:00:17.58 bitrate=N/A    frame=  881 fps=4.0 q=24.8 size=N/A time=00:00:17.62 bitrate=N/A    frame=  883 fps=4.0 q=24.8 size=N/A time=00:00:17.66 bitrate=N/A    frame=  885 fps=4.0 q=24.8 size=N/A time=00:00:17.70 bitrate=N/A    frame=  887 fps=4.0 q=24.8 size=N/A time=00:00:17.74 bitrate=N/A    frame=  889 fps=4.0 q=24.8 size=N/A time=00:00:17.78 bitrate=N/A    frame=  892 fps=4.0 q=24.8 size=N/A time=00:00:17.84 bitrate=N/A    frame=  895 fps=4.0 q=24.8 size=N/A time=00:00:17.90 bitrate=N/A    frame=  897 fps=4.0 q=24.8 size=N/A time=00:00:17.94 bitrate=N/A    frame=  899 fps=4.0 q=24.8 size=N/A time=00:00:17.98 bitrate=N/A    frame=  901 fps=4.0 q=24.8 size=N/A time=00:00:18.02 bitrate=N/A    frame=  903 fps=4.0 q=24.8 size=N/A time=00:00:18.06 bitrate=N/A    frame=  906 fps=4.0 q=24.8 size=N/A time=00:00:18.12 bitrate=N/A    frame=  908 fps=4.0 q=24.8 size=N/A time=00:00:18.16 bitrate=N/A    frame=  910 fps=4.0 q=24.8 size=N/A time=00:00:18.20 bitrate=N/A    frame=  912 fps=3.9 q=24.8 size=N/A time=00:00:18.24 bitrate=N/A    frame=  914 fps=3.9 q=24.8 size=N/A time=00:00:18.28 bitrate=N/A    frame=  916 fps=3.9 q=24.8 size=N/A time=00:00:18.32 bitrate=N/A    frame=  918 fps=3.9 q=24.8 size=N/A time=00:00:18.36 bitrate=N/A    frame=  920 fps=3.9 q=24.8 size=N/A time=00:00:18.40 bitrate=N/A    frame=  923 fps=3.9 q=24.8 size=N/A time=00:00:18.46 bitrate=N/A    frame=  925 fps=3.9 q=24.8 size=N/A time=00:00:18.50 bitrate=N/A    frame=  927 fps=3.9 q=24.8 size=N/A time=00:00:18.54 bitrate=N/A    frame=  929 fps=3.9 q=24.8 size=N/A time=00:00:18.58 bitrate=N/A    frame=  931 fps=3.9 q=24.8 size=N/A time=00:00:18.62 bitrate=N/A    frame=  933 fps=3.9 q=24.8 size=N/A time=00:00:18.66 bitrate=N/A    frame=  935 fps=3.9 q=24.8 size=N/A time=00:00:18.70 bitrate=N/A    frame=  937 fps=3.9 q=24.8 size=N/A time=00:00:18.74 bitrate=N/A    frame=  939 fps=3.9 q=24.8 size=N/A time=00:00:18.78 bitrate=N/A    frame=  941 fps=3.9 q=24.8 size=N/A time=00:00:18.82 bitrate=N/A    frame=  943 fps=3.9 q=24.8 size=N/A time=00:00:18.86 bitrate=N/A    frame=  945 fps=3.9 q=24.8 size=N/A time=00:00:18.90 bitrate=N/A    frame=  948 fps=3.9 q=24.8 size=N/A time=00:00:18.96 bitrate=N/A    frame=  951 fps=3.9 q=24.8 size=N/A time=00:00:19.02 bitrate=N/A    frame=  954 fps=3.9 q=24.8 size=N/A time=00:00:19.08 bitrate=N/A    frame=  957 fps=3.9 q=24.8 size=N/A time=00:00:19.14 bitrate=N/A    frame=  959 fps=3.9 q=24.8 size=N/A time=00:00:19.18 bitrate=N/A    frame=  961 fps=3.9 q=24.8 size=N/A time=00:00:19.22 bitrate=N/A    frame=  963 fps=3.9 q=24.8 size=N/A time=00:00:19.26 bitrate=N/A    frame=  966 fps=3.9 q=24.8 size=N/A time=00:00:19.32 bitrate=N/A    frame=  969 fps=3.9 q=24.8 size=N/A time=00:00:19.38 bitrate=N/A    frame=  971 fps=3.9 q=24.8 size=N/A time=00:00:19.42 bitrate=N/A    frame=  973 fps=3.9 q=24.8 size=N/A time=00:00:19.46 bitrate=N/A    frame=  975 fps=3.9 q=24.8 size=N/A time=00:00:19.50 bitrate=N/A    frame=  977 fps=3.9 q=24.8 size=N/A time=00:00:19.54 bitrate=N/A    frame=  979 fps=3.9 q=24.8 size=N/A time=00:00:19.58 bitrate=N/A    frame=  981 fps=3.9 q=24.8 size=N/A time=00:00:19.62 bitrate=N/A    frame=  984 fps=3.9 q=24.8 size=N/A time=00:00:19.68 bitrate=N/A    frame=  986 fps=3.9 q=24.8 size=N/A time=00:00:19.72 bitrate=N/A    frame=  989 fps=3.9 q=24.8 size=N/A time=00:00:19.78 bitrate=N/A    frame=  991 fps=3.9 q=24.8 size=N/A time=00:00:19.82 bitrate=N/A    frame=  993 fps=3.9 q=24.8 size=N/A time=00:00:19.86 bitrate=N/A    frame=  995 fps=3.9 q=24.8 size=N/A time=00:00:19.90 bitrate=N/A    frame=  997 fps=3.9 q=24.8 size=N/A time=00:00:19.94 bitrate=N/A    frame=  999 fps=3.9 q=24.8 size=N/A time=00:00:19.98 bitrate=N/A    frame= 1001 fps=3.9 q=24.8 size=N/A time=00:00:20.02 bitrate=N/A    frame= 1003 fps=3.9 q=24.8 size=N/A time=00:00:20.06 bitrate=N/A    frame= 1005 fps=3.9 q=24.8 size=N/A time=00:00:20.10 bitrate=N/A    frame= 1007 fps=3.9 q=24.8 size=N/A time=00:00:20.14 bitrate=N/A    frame= 1009 fps=3.9 q=24.8 size=N/A time=00:00:20.18 bitrate=N/A    frame= 1011 fps=3.9 q=24.8 size=N/A time=00:00:20.22 bitrate=N/A    frame= 1013 fps=3.9 q=24.8 size=N/A time=00:00:20.26 bitrate=N/A    frame= 1015 fps=3.9 q=24.8 size=N/A time=00:00:20.30 bitrate=N/A    frame= 1017 fps=3.9 q=24.8 size=N/A time=00:00:20.34 bitrate=N/A    frame= 1019 fps=3.9 q=24.8 size=N/A time=00:00:20.38 bitrate=N/A    frame= 1021 fps=3.9 q=24.8 size=N/A time=00:00:20.42 bitrate=N/A    frame= 1023 fps=3.9 q=24.8 size=N/A time=00:00:20.46 bitrate=N/A    frame= 1025 fps=3.9 q=24.8 size=N/A time=00:00:20.50 bitrate=N/A    frame= 1027 fps=3.9 q=24.8 size=N/A time=00:00:20.54 bitrate=N/A    frame= 1029 fps=3.9 q=24.8 size=N/A time=00:00:20.58 bitrate=N/A    frame= 1031 fps=3.9 q=24.8 size=N/A time=00:00:20.62 bitrate=N/A    frame= 1033 fps=3.9 q=24.8 size=N/A time=00:00:20.66 bitrate=N/A    frame= 1035 fps=3.9 q=24.8 size=N/A time=00:00:20.70 bitrate=N/A    frame= 1038 fps=3.9 q=24.8 size=N/A time=00:00:20.76 bitrate=N/A    frame= 1040 fps=3.9 q=24.8 size=N/A time=00:00:20.80 bitrate=N/A    frame= 1042 fps=3.9 q=24.8 size=N/A time=00:00:20.84 bitrate=N/A    frame= 1044 fps=3.9 q=24.8 size=N/A time=00:00:20.88 bitrate=N/A    frame= 1047 fps=3.9 q=24.8 size=N/A time=00:00:20.94 bitrate=N/A    frame= 1049 fps=3.9 q=24.8 size=N/A time=00:00:20.98 bitrate=N/A    frame= 1052 fps=3.9 q=24.8 size=N/A time=00:00:21.04 bitrate=N/A    frame= 1054 fps=3.9 q=24.8 size=N/A time=00:00:21.08 bitrate=N/A    frame= 1056 fps=3.9 q=24.8 size=N/A time=00:00:21.12 bitrate=N/A    frame= 1058 fps=3.9 q=24.8 size=N/A time=00:00:21.16 bitrate=N/A    frame= 1060 fps=3.9 q=24.8 size=N/A time=00:00:21.20 bitrate=N/A    frame= 1062 fps=3.9 q=24.8 size=N/A time=00:00:21.24 bitrate=N/A    frame= 1064 fps=3.9 q=24.8 size=N/A time=00:00:21.28 bitrate=N/A    frame= 1066 fps=3.9 q=24.8 size=N/A time=00:00:21.32 bitrate=N/A    frame= 1068 fps=3.9 q=24.8 size=N/A time=00:00:21.36 bitrate=N/A    frame= 1070 fps=3.9 q=24.8 size=N/A time=00:00:21.40 bitrate=N/A    frame= 1073 fps=3.9 q=24.8 size=N/A time=00:00:21.46 bitrate=N/A    frame= 1075 fps=3.9 q=24.8 size=N/A time=00:00:21.50 bitrate=N/A    frame= 1077 fps=3.9 q=24.8 size=N/A time=00:00:21.54 bitrate=N/A    frame= 1079 fps=3.9 q=24.8 size=N/A time=00:00:21.58 bitrate=N/A    frame= 1081 fps=3.9 q=24.8 size=N/A time=00:00:21.62 bitrate=N/A    frame= 1083 fps=3.9 q=24.8 size=N/A time=00:00:21.66 bitrate=N/A    frame= 1085 fps=3.9 q=24.8 size=N/A time=00:00:21.70 bitrate=N/A    frame= 1087 fps=3.9 q=24.8 size=N/A time=00:00:21.74 bitrate=N/A    frame= 1089 fps=3.9 q=24.8 size=N/A time=00:00:21.78 bitrate=N/A    frame= 1093 fps=3.9 q=24.8 size=N/A time=00:00:21.86 bitrate=N/A    frame= 1096 fps=3.9 q=24.8 size=N/A time=00:00:21.92 bitrate=N/A    frame= 1099 fps=3.9 q=24.8 size=N/A time=00:00:21.98 bitrate=N/A    frame= 1102 fps=3.9 q=24.8 size=N/A time=00:00:22.04 bitrate=N/A    frame= 1105 fps=3.9 q=24.8 size=N/A time=00:00:22.10 bitrate=N/A    frame= 1108 fps=3.9 q=24.8 size=N/A time=00:00:22.16 bitrate=N/A    frame= 1110 fps=3.9 q=24.8 size=N/A time=00:00:22.20 bitrate=N/A    frame= 1113 fps=3.9 q=24.8 size=N/A time=00:00:22.26 bitrate=N/A    frame= 1116 fps=3.9 q=24.8 size=N/A time=00:00:22.32 bitrate=N/A    frame= 1118 fps=3.9 q=24.8 size=N/A time=00:00:22.36 bitrate=N/A    frame= 1121 fps=3.9 q=24.8 size=N/A time=00:00:22.42 bitrate=N/A    frame= 1124 fps=3.9 q=24.8 size=N/A time=00:00:22.48 bitrate=N/A    frame= 1127 fps=3.9 q=24.8 size=N/A time=00:00:22.54 bitrate=N/A    frame= 1129 fps=3.9 q=24.8 size=N/A time=00:00:22.58 bitrate=N/A    frame= 1132 fps=3.9 q=24.8 size=N/A time=00:00:22.64 bitrate=N/A    frame= 1135 fps=3.9 q=24.8 size=N/A time=00:00:22.70 bitrate=N/A    frame= 1137 fps=3.9 q=24.8 size=N/A time=00:00:22.74 bitrate=N/A    frame= 1140 fps=3.9 q=24.8 size=N/A time=00:00:22.80 bitrate=N/A    frame= 1143 fps=3.9 q=24.8 size=N/A time=00:00:22.86 bitrate=N/A    frame= 1146 fps=3.9 q=24.8 size=N/A time=00:00:22.92 bitrate=N/A    frame= 1149 fps=3.9 q=24.8 size=N/A time=00:00:22.98 bitrate=N/A    frame= 1151 fps=3.9 q=24.8 size=N/A time=00:00:23.02 bitrate=N/A    frame= 1154 fps=3.9 q=24.8 size=N/A time=00:00:23.08 bitrate=N/A    frame= 1157 fps=3.9 q=24.8 size=N/A time=00:00:23.14 bitrate=N/A    frame= 1160 fps=3.9 q=24.8 size=N/A time=00:00:23.20 bitrate=N/A    frame= 1163 fps=3.9 q=24.8 size=N/A time=00:00:23.26 bitrate=N/A    frame= 1165 fps=3.9 q=24.8 size=N/A time=00:00:23.30 bitrate=N/A    frame= 1168 fps=3.9 q=24.8 size=N/A time=00:00:23.36 bitrate=N/A    frame= 1170 fps=3.9 q=24.8 size=N/A time=00:00:23.40 bitrate=N/A    frame= 1172 fps=3.9 q=24.8 size=N/A time=00:00:23.44 bitrate=N/A    frame= 1174 fps=3.9 q=24.8 Lsize=N/A time=00:00:23.48 bitrate=N/A    
video:1057977kB audio:0kB subtitle:0kB other streams:0kB global headers:0kB muxing overhead: unknown
+ turkic load DJI_0045_30m_szarvasragas_homokmegy_20180603_napos_napraforgo_T3 /home/horvathandras/vatic/vatic/videos/DJI_0045_30m_szarvasragas_homokmegy_20180603_napos_napraforgo_T3 $'Pozit\303\255vROI' $'Negat\303\255vROI' $'T\303\272r\303\241s' '~Friss' '~1-2Hetes' '~Régebbi' '~Egyéb1' '~Egyéb2' '~Egyéb3' $'R\303\241g\303\241s' '~Friss' '~1-2Hetes' '~Régebbi' '~Egyéb1' '~Egyéb2' '~Egyéb3' $'T\303\266r\303\251s' '~Friss' '~1-2Hetes' '~Régebbi' '~Egyéb1' '~Egyéb2' '~Egyéb3' $'Tapos\303\241s' '~Friss' '~1-2Hetes' '~Régebbi' '~Egyéb1' '~Egyéb2' '~Egyéb3' $'Eg\303\251szs\303\251gesN\303\266v\303\251ny' $'Egy\303\251b1' $'Egy\303\251b2' $'Egy\303\251b3' $'Egy\303\251b4' $'Egy\303\251b5' Bizonytalan $'M\305\261vel\305\221\303\272t' $'Gktapos\303\241s' $'Vet\305\221hiba' $'Sz\303\251ld\303\266nt\303\251s' $'J\303\251gk\303\241r' $'Belv\303\255z' $'Asz\303\241ly' $'Er\303\263zi\303\263' $'Egyszik\305\261Gyom' $'K\303\251tszik\305\261Gyom' $'Egy\303\251bN\303\266vv\303\251delmiPR' --offline --title '$filenameNoDot Video' --length 1000 --description 'vatic annotation'
+ turkic publish --offline
+ mkdir /home/horvathandras/vatic/vatic/public/videothumbnails/DJI_0045_30m_szarvasragas_homokmegy_20180603_napos_napraforgo_T3
mkdir: cannot create directory '/home/horvathandras/vatic/vatic/public/videothumbnails/DJI_0045_30m_szarvasragas_homokmegy_20180603_napos_napraforgo_T3': File exists
+ cp /home/horvathandras/vatic/vatic/videos/DJI_0045_30m_szarvasragas_homokmegy_20180603_napos_napraforgo_T3/0/0/31.jpg /home/horvathandras/vatic/vatic/public/videothumbnails/DJI_0045_30m_szarvasragas_homokmegy_20180603_napos_napraforgo_T3/thumb.jpg
time=00:00:21.56 bitrate=N/A dup=1 drop=0    frame= 1080 fps=3.9 q=24.8 size=N/A time=00:00:21.60 bitrate=N/A dup=1 drop=0    frame= 1082 fps=3.9 q=24.8 size=N/A time=00:00:21.64 bitrate=N/A dup=1 drop=0    frame= 1085 fps=3.9 q=24.8 size=N/A time=00:00:21.70 bitrate=N/A dup=1 drop=0    frame= 1088 fps=3.9 q=24.8 size=N/A time=00:00:21.76 bitrate=N/A dup=1 drop=0    frame= 1090 fps=3.9 q=24.8 size=N/A time=00:00:21.80 bitrate=N/A dup=1 drop=0    frame= 1092 fps=3.9 q=24.8 size=N/A time=00:00:21.84 bitrate=N/A dup=1 drop=0    frame= 1095 fps=3.9 q=24.8 size=N/A time=00:00:21.90 bitrate=N/A dup=1 drop=0    frame= 1097 fps=3.9 q=24.8 size=N/A time=00:00:21.94 bitrate=N/A dup=1 drop=0    frame= 1100 fps=3.9 q=24.8 size=N/A time=00:00:22.00 bitrate=N/A dup=1 drop=0    frame= 1103 fps=3.9 q=24.8 size=N/A time=00:00:22.06 bitrate=N/A dup=1 drop=0    frame= 1105 fps=3.9 q=24.8 size=N/A time=00:00:22.10 bitrate=N/A dup=1 drop=0    frame= 1107 fps=3.9 q=24.8 size=N/A time=00:00:22.14 bitrate=N/A dup=1 drop=0    frame= 1109 fps=3.9 q=24.8 size=N/A time=00:00:22.18 bitrate=N/A dup=1 drop=0    frame= 1112 fps=3.9 q=24.8 size=N/A time=00:00:22.24 bitrate=N/A dup=1 drop=0    frame= 1114 fps=3.9 q=24.8 size=N/A time=00:00:22.28 bitrate=N/A dup=1 drop=0    frame= 1116 fps=3.9 q=24.8 size=N/A time=00:00:22.32 bitrate=N/A dup=1 drop=0    frame= 1118 fps=3.9 q=24.8 size=N/A time=00:00:22.36 bitrate=N/A dup=1 drop=0    frame= 1120 fps=3.9 q=24.8 size=N/A time=00:00:22.40 bitrate=N/A dup=1 drop=0    frame= 1122 fps=3.9 q=24.8 size=N/A time=00:00:22.44 bitrate=N/A dup=1 drop=0    frame= 1124 fps=3.9 q=24.8 size=N/A time=00:00:22.48 bitrate=N/A dup=1 drop=0    frame= 1126 fps=3.9 q=24.8 size=N/A time=00:00:22.52 bitrate=N/A dup=1 drop=0    frame= 1129 fps=3.9 q=24.8 size=N/A time=00:00:22.58 bitrate=N/A dup=1 drop=0    frame= 1131 fps=3.9 q=24.8 size=N/A time=00:00:22.62 bitrate=N/A dup=1 drop=0    frame= 1134 fps=3.9 q=24.8 size=N/A time=00:00:22.68 bitrate=N/A dup=1 drop=0    frame= 1136 fps=3.9 q=24.8 size=N/A time=00:00:22.72 bitrate=N/A dup=1 drop=0    frame= 1138 fps=3.9 q=24.8 size=N/A time=00:00:22.76 bitrate=N/A dup=1 drop=0    frame= 1141 fps=3.9 q=24.8 size=N/A time=00:00:22.82 bitrate=N/A dup=1 drop=0    frame= 1144 fps=3.9 q=24.8 size=N/A time=00:00:22.88 bitrate=N/A dup=1 drop=0    frame= 1147 fps=3.9 q=24.8 size=N/A time=00:00:22.94 bitrate=N/A dup=1 drop=0    frame= 1150 fps=3.9 q=24.8 size=N/A time=00:00:23.00 bitrate=N/A dup=1 drop=0    frame= 1153 fps=3.9 q=24.8 size=N/A time=00:00:23.06 bitrate=N/A dup=1 drop=0    frame= 1156 fps=3.9 q=24.8 size=N/A time=00:00:23.12 bitrate=N/A dup=1 drop=0    frame= 1159 fps=3.9 q=24.8 size=N/A time=00:00:23.18 bitrate=N/A dup=1 drop=0    frame= 1162 fps=3.9 q=24.8 size=N/A time=00:00:23.24 bitrate=N/A dup=1 drop=0    frame= 1164 fps=3.9 q=24.8 size=N/A time=00:00:23.28 bitrate=N/A dup=1 drop=0    frame= 1167 fps=3.9 q=24.8 size=N/A time=00:00:23.34 bitrate=N/A dup=1 drop=0    frame= 1170 fps=3.9 q=24.8 size=N/A time=00:00:23.40 bitrate=N/A dup=1 drop=0    frame= 1173 fps=3.9 q=24.8 size=N/A time=00:00:23.46 bitrate=N/A dup=1 drop=0    frame= 1174 fps=3.9 q=24.8 size=N/A time=00:00:23.48 bitrate=N/A dup=1 drop=0    frame= 1174 fps=3.9 q=24.8 Lsize=N/A time=00:00:23.48 bitrate=N/A dup=1 drop=0    
video:1057998kB audio:0kB subtitle:0kB other streams:0kB global headers:0kB muxing overhead: unknown
+ turkic load DJI_0045_30m_szarvasragas_homokmegy_20180603_napos_napraforgo_T3 /home/horvathandras/vatic/vatic/videos/DJI_0045_30m_szarvasragas_homokmegy_20180603_napos_napraforgo_T3 $'Pozit\303\255vROI' $'Negat\303\255vROI' $'T\303\272r\303\241s' '~Friss' '~1-2Hetes' '~Régebbi' '~Egyéb1' '~Egyéb2' '~Egyéb3' $'R\303\241g\303\241s' '~Friss' '~1-2Hetes' '~Régebbi' '~Egyéb1' '~Egyéb2' '~Egyéb3' $'T\303\266r\303\251s' '~Friss' '~1-2Hetes' '~Régebbi' '~Egyéb1' '~Egyéb2' '~Egyéb3' $'Tapos\303\241s' '~Friss' '~1-2Hetes' '~Régebbi' '~Egyéb1' '~Egyéb2' '~Egyéb3' $'Eg\303\251szs\303\251gesN\303\266v\303\251ny' $'Egy\303\251b1' $'Egy\303\251b2' $'Egy\303\251b3' $'Egy\303\251b4' $'Egy\303\251b5' Bizonytalan $'M\305\261vel\305\221\303\272t' $'Gktapos\303\241s' $'Vet\305\221hiba' $'Sz\303\251ld\303\266nt\303\251s' $'J\303\251gk\303\241r' $'Belv\303\255z' $'Asz\303\241ly' $'Er\303\263zi\303\263' $'Egyszik\305\261Gyom' $'K\303\251tszik\305\261Gyom' $'Egy\303\251bN\303\266vv\303\251delmiPR' --offline --title '$filenameNoDot Video' --length 1000 --description 'vatic annotation'
+ turkic publish --offline
+ mkdir /home/horvathandras/vatic/vatic/public/videothumbnails/DJI_0045_30m_szarvasragas_homokmegy_20180603_napos_napraforgo_T3
+ cp /home/horvathandras/vatic/vatic/videos/DJI_0045_30m_szarvasragas_homokmegy_20180603_napos_napraforgo_T3/0/0/31.jpg /home/horvathandras/vatic/vatic/public/videothumbnails/DJI_0045_30m_szarvasragas_homokmegy_20180603_napos_napraforgo_T3/thumb.jpg
